<?xml version="1.0" encoding="UTF-8"?>
<svg version="1.1" xmlns="http://www.w3.org/2000/svg" width="2560" height="2560">
<path d="M0 0 C3.6758463 0.01351053 7.35157328 0.00814017 11.0274334 0.00313663 C33.13844712 -0.01958369 55.06903002 0.57532662 77.11499023 2.3225708 C78.07564392 2.39573517 79.03629761 2.46889954 80.02606201 2.54428101 C85.60381976 2.97165504 91.17289816 3.46138595 96.73999023 4.0100708 C97.57130463 4.09149323 98.40261902 4.17291565 99.25912476 4.25680542 C180.25488278 12.31641854 261.49318908 31.53461849 344.11499023 67.3225708 C345.12719635 67.76663269 345.12719635 67.76663269 346.15985107 68.21966553 C373.32509287 80.14999557 399.63631898 93.28435002 425.12011719 108.53106689 C427.28682872 109.82717265 429.45702537 111.11604243 431.63134766 112.39923096 C440.57763011 117.69687324 449.29414465 123.28070847 457.92749023 129.0725708 C458.5756369 129.50599792 459.22378357 129.93942505 459.89157104 130.38598633 C470.47150177 137.46459946 480.9259216 144.68825128 491.11499023 152.3225708 C491.68878418 152.75150635 492.26257813 153.18044189 492.85375977 153.62237549 C509.4385421 166.07428626 525.52696744 179.34669625 540.87280273 193.29522705 C542.82707448 195.06224279 544.80558761 196.7917061 546.80249023 198.5100708 C557.9892678 208.30951178 568.59164827 218.69742109 579.11499023 229.1975708 C579.65719208 229.73718445 580.19939392 230.2767981 580.75802612 230.83276367 C586.21388607 236.26807676 591.60488313 241.71615664 596.61206055 247.57452393 C598.98856148 250.33861533 601.49661775 252.97684377 603.98999023 255.6350708 C608.45377886 260.43308768 612.68376401 265.3573064 616.79077148 270.46710205 C619.40471203 273.67851472 622.0958295 276.81440061 624.80249023 279.9475708 C633.69211683 290.26754761 642.37980437 300.75604602 650.73999023 311.5100708 C655.82967632 318.05288698 661.196504 324.3304905 666.62426758 330.59356689 C669.08086259 333.44283087 671.50307372 336.32093152 673.92749023 339.1975708 C680.0618872 346.46102432 686.32775079 353.58741082 692.70874023 360.6350708 C694.64333857 362.79579102 696.55265892 364.97335929 698.45483398 367.16241455 C701.94221096 371.15453116 705.5379518 375.03184273 709.17749023 378.8850708 C710.49803706 380.2871939 711.81834386 381.68954308 713.13842773 383.09210205 C713.80068359 383.79544678 714.46293945 384.4987915 715.14526367 385.22344971 C717.03069746 387.2327407 718.90689884 389.25012689 720.77905273 391.27178955 C721.95335501 392.53888059 723.12783113 393.80581055 724.30249023 395.0725708 C725.15460083 395.99151123 725.15460083 395.99151123 726.02392578 396.92901611 C730.40974748 401.63084817 734.92339708 406.18999765 739.56103516 410.64385986 C740.78176703 411.83418354 741.9537547 413.07413626 743.11499023 414.3225708 C743.11499023 414.9825708 743.11499023 415.6425708 743.11499023 416.3225708 C743.64640625 416.52729004 744.17782227 416.73200928 744.7253418 416.94293213 C748.11309023 418.89881345 750.63761654 421.62063719 753.34936523 424.39678955 C753.94622131 424.9988472 754.54307739 425.60090485 755.15802002 426.22120667 C757.06516588 428.14612995 758.96551089 430.07758427 760.86499023 432.0100708 C770.79373434 442.2007764 770.79373434 442.2007764 781.30834961 451.77203369 C785.56813038 455.42796175 789.57547838 459.3768735 793.64233398 463.2444458 C794.32166992 463.88639893 795.00100586 464.52835205 795.70092773 465.1897583 C796.30984863 465.76838623 796.91876953 466.34701416 797.54614258 466.94317627 C799.08345704 468.41294598 799.08345704 468.41294598 801.11499023 469.3225708 C801.11499023 469.9825708 801.11499023 470.6425708 801.11499023 471.3225708 C801.67057617 471.55846924 802.22616211 471.79436768 802.79858398 472.03741455 C805.67874615 473.635346 807.77868099 475.6275758 810.17749023 477.8850708 C814.70194024 482.08705036 819.37022933 486.0377353 824.17749023 489.9163208 C827.4785308 492.62036467 830.70247668 495.40386605 833.92749023 498.1975708 C839.67395745 503.15878696 845.56605285 507.89211341 851.56030273 512.5491333 C854.58844998 514.90250311 857.58281893 517.29510623 860.56933594 519.70098877 C875.430027 531.66998578 890.71021101 543.06645578 906.11499023 554.3225708 C906.87457031 554.87976807 907.63415039 555.43696533 908.41674805 556.01104736 C918.76997239 563.6010349 929.28699254 570.87845862 940.01147461 577.93341064 C941.9851437 579.23682025 943.95034544 580.55174973 945.91186523 581.87335205 C955.11077807 588.06776145 964.45438777 594.01597323 973.8527832 599.90264893 C975.88305067 601.17698905 977.90827539 602.45880396 979.93139648 603.7444458 C1009.487706 622.46973208 1040.06449952 639.51895957 1071.246521 655.37207031 C1073.19203448 656.36176363 1075.1362102 657.35405354 1077.08032227 658.34649658 C1117.97921993 679.19871176 1159.86678085 697.71650502 1203.09399414 713.22979736 C1206.01988596 714.28816909 1208.93349893 715.37496432 1211.84545898 716.4710083 C1240.24639417 727.07780481 1269.33776903 735.61450238 1298.73999023 742.9475708 C1299.74756378 743.19955231 1300.75513733 743.45153381 1301.79324341 743.71115112 C1312.54813063 746.38723534 1323.28422817 748.86488023 1334.20629883 750.75762939 C1337.11499023 751.3225708 1337.11499023 751.3225708 1339.11499023 752.3225708 C1339.11499023 752.9825708 1339.11499023 753.6425708 1339.11499023 754.3225708 C1315.82474651 765.98276029 1292.31263141 776.68400338 1268.11499023 786.3225708 C1267.41948059 786.60060547 1266.72397095 786.87864014 1266.00738525 787.1651001 C1230.08799096 801.51126872 1193.40450505 814.04399242 1156.11499023 824.3225708 C1155.3288031 824.5404425 1154.54261597 824.75831421 1153.73260498 824.98278809 C1114.34638605 835.88627352 1074.56949531 844.48295979 1034.11499023 850.3225708 C1033.4359967 850.42098267 1032.75700317 850.51939453 1032.05743408 850.62078857 C1022.77995824 851.95692467 1013.4864451 853.10955855 1004.16644287 854.10253906 C1002.11492043 854.32257829 1000.06446566 854.55118356 998.01391602 854.78009033 C952.75029165 859.72831954 905.33040511 859.54588844 860.11499023 854.3225708 C856.63656977 853.94822162 853.15707258 853.58437883 849.67749023 853.2210083 C848.03295317 853.04837486 846.38842141 852.87569093 844.74389648 852.70294189 C843.54635742 852.57741943 842.34881836 852.45189697 841.11499023 852.3225708 C867.90667627 859.21370567 894.6558004 865.97751154 921.88415527 870.9175415 C924.20489217 871.33889335 926.52468007 871.76524677 928.84448242 872.19171143 C978.39676096 881.25450896 1028.72202576 887.69375359 1079.05380249 890.21542358 C1080.47172392 890.28913173 1081.88938688 890.367932 1083.30679321 890.45095825 C1102.39649239 891.56636897 1121.50074076 891.51003644 1140.61572266 891.50787354 C1144.38367563 891.50779274 1148.15150579 891.51467502 1151.91943359 891.52838135 C1176.72365679 891.61708654 1201.37033638 891.0876033 1226.11499023 889.3225708 C1227.67046066 889.21255234 1227.67046066 889.21255234 1229.25735474 889.10031128 C1234.94690399 888.68603183 1240.62532191 888.19289248 1246.30249023 887.6350708 C1247.14232452 887.55398071 1247.98215881 887.47289062 1248.84744263 887.38934326 C1340.0431692 878.4795064 1431.39154121 858.00164093 1589.58520508 785.73223877 C1592.00102614 784.38607482 1594.42511434 783.05648239 1596.85327148 781.73272705 C1607.48137177 775.92190893 1617.83969729 769.7343536 1628.11499023 763.3225708 C1628.91646484 762.82434814 1629.71793945 762.32612549 1630.54370117 761.81280518 C1640.58505711 755.56326218 1650.47623763 749.1813809 1660.11499023 742.3225708 C1660.66960937 741.92860107 1661.22422852 741.53463135 1661.7956543 741.12872314 C1664.73028513 739.04306861 1667.65960019 736.9502507 1670.58374023 734.84991455 C1672.90744313 733.18215759 1675.24060182 731.52930617 1677.58374023 729.88897705 C1685.07071348 724.6311111 1692.27011755 719.09902382 1699.37670898 713.3381958 C1702.43461252 710.85997828 1705.52936254 708.43416445 1708.63989258 706.02252197 C1715.05314035 701.0448537 1721.13588487 695.81915187 1727.11499023 690.3225708 C1728.44421404 689.15122415 1729.77737431 687.98432487 1731.11499023 686.8225708 C1734.92664541 683.5027421 1738.68050728 680.12135942 1742.42749023 676.7288208 C1744.57520266 674.80586898 1746.7396194 672.90826728 1748.91577148 671.0178833 C1753.13134419 667.33456492 1757.23096577 663.53895327 1761.30249023 659.6975708 C1762.40343018 658.65923096 1762.40343018 658.65923096 1763.52661133 657.59991455 C1772.13471262 649.44979042 1780.75596322 641.28122267 1788.42749023 632.2288208 C1791.16618071 629.13511489 1794.13778619 626.27943348 1797.09936523 623.4006958 C1799.15658415 621.37872023 1799.15658415 621.37872023 1800.75561523 619.0569458 C1801.20420898 618.48460205 1801.65280273 617.9122583 1802.11499023 617.3225708 C1802.77499023 617.3225708 1803.43499023 617.3225708 1804.11499023 617.3225708 C1802.88467104 625.82208957 1801.01868151 633.9570217 1798.61499023 642.1975708 C1798.26605713 643.40155518 1797.91712402 644.60553955 1797.55761719 645.8460083 C1774.02069752 725.98226063 1736.23695471 803.08328681 1688.11499023 871.3225708 C1687.51340088 872.17842773 1687.51340088 872.17842773 1686.8996582 873.05157471 C1673.5563012 892.00055942 1659.79359066 910.6213208 1644.72827148 928.24053955 C1642.32417711 931.05892109 1639.99731029 933.93429033 1637.67749023 936.8225708 C1633.81108856 941.5774813 1629.72970156 946.08918725 1625.5390625 950.5569458 C1622.8661247 953.40807946 1620.25006436 956.29525602 1617.68530273 959.2444458 C1607.65118338 970.7646448 1596.90055909 981.63577498 1586.11499023 992.4475708 C1585.62675781 992.93839142 1585.13852539 993.42921204 1584.63549805 993.93490601 C1579.5263831 999.06541645 1574.38286054 1004.08948925 1568.88452148 1008.80255127 C1566.23435548 1011.07903217 1563.68108634 1013.45172114 1561.11499023 1015.8225708 C1549.1883506 1026.79455821 1536.84273426 1037.29122292 1524.11499023 1047.3225708 C1523.05889884 1048.16098423 1522.00291564 1048.99953397 1520.94702148 1049.8381958 C1512.12307975 1056.82893671 1503.16384195 1063.62608115 1494.11499023 1070.3225708 C1493.44048828 1070.82482178 1492.76598633 1071.32707275 1492.07104492 1071.84454346 C1436.74254106 1112.95359557 1374.70839113 1146.85754635 1311.11499023 1173.3225708 C1310.19254517 1173.70741638 1310.19254517 1173.70741638 1309.25146484 1174.10003662 C1227.86800166 1208.00175518 1142.44126496 1230.52081684 768.11499023 1260.3225708 C767.20587891 1260.25940674 766.29676758 1260.19624268 765.36010742 1260.13116455 C723.23274718 1257.15437844 681.51274415 1251.68813419 640.11499023 1243.3225708 C639.37627686 1243.17430847 638.63756348 1243.02604614 637.87646484 1242.87329102 C553.37207271 1225.86528651 469.70402393 1194.59971842 341.11499023 1106.3225708 C340.50139648 1105.80807373 339.88780273 1105.29357666 339.25561523 1104.76348877 C332.02109509 1098.67482077 324.95515477 1092.42762286 318.02905273 1085.99053955 C315.84425433 1083.99024825 313.63809576 1082.04860953 311.39233398 1080.1194458 C306.39359347 1075.76091768 301.72968692 1071.08341532 297.05249023 1066.3850708 C296.19333008 1065.52977783 295.33416992 1064.67448486 294.44897461 1063.79327393 C289.46190888 1058.79858854 284.68978969 1053.69604235 280.11499023 1048.3225708 C279.16513035 1047.22824675 278.21463715 1046.13447201 277.26342773 1045.0413208 C265.93020863 1031.91822075 254.92873432 1018.63045937 245.11499023 1004.3225708 C244.70684082 1003.73153564 244.29869141 1003.14050049 243.87817383 1002.53155518 C222.11499023 970.90998057 222.11499023 970.90998057 222.11499023 963.3225708 C229.88277768 965.21532019 237.58303779 967.2636813 245.25561523 969.5100708 C247.37831196 970.12685477 249.50103436 970.74355041 251.6237793 971.36016846 C252.7224231 971.6801178 253.82106689 972.00006714 254.95300293 972.32971191 C276.9281627 978.72429393 298.94309808 984.9450084 321.03051758 990.93927002 C325.43463886 992.13553686 329.83533383 993.3439973 334.23545837 994.55487061 C403.44133922 1013.59007331 473.25369121 1031.29713693 543.64575195 1045.42022705 C547.73612816 1046.24226586 551.82096031 1047.08983944 555.90560913 1047.93981934 C596.66834838 1056.40937496 637.76093189 1063.43450273 679.11499023 1068.3225708 C680.14647186 1068.4463208 680.14647186 1068.4463208 681.1987915 1068.5725708 C699.71412973 1070.77897966 718.09380345 1071.60049413 736.73999023 1071.6350708 C737.69107666 1071.63874664 738.64216309 1071.64242249 739.62207031 1071.64620972 C754.14216831 1071.67564405 768.99353441 1071.65124213 782.86499023 1066.8225708 C783.52241211 1066.60987549 784.17983398 1066.39718018 784.85717773 1066.17803955 C788.08540753 1065.11285442 791.09797829 1063.87793499 794.11499023 1062.3225708 C793.07608643 1061.96131104 792.03718262 1061.60005127 790.96679688 1061.22784424 C714.40126487 1034.58717373 637.92872254 1006.49763208 518.82739258 946.52984619 C509.83141675 941.6476288 500.6976803 937.20920145 491.36499023 933.0100708 C490.65234009 932.68830872 489.93968994 932.36654663 489.20544434 932.03503418 C416.63965612 899.31508207 339.70643099 877.84618383 260.11499023 872.3225708 C258.88240479 872.23572021 257.64981934 872.14886963 256.37988281 872.05938721 C243.06970369 871.18781901 229.76260078 871.08052278 216.42749023 871.0725708 C215.24645721 871.07156372 214.06542419 871.07055664 212.84860229 871.06951904 C178.66800403 871.08908913 144.92485149 873.97745382 111.18530273 879.44366455 C109.16321985 879.74584133 107.13990656 880.04000419 105.11499023 880.3225708 C104.02347656 880.47810425 104.02347656 880.47810425 102.90991211 880.63677979 C101.09155273 880.7835083 101.09155273 880.7835083 98.11499023 880.3225708 C95.70092773 878.1116333 95.70092773 878.1116333 93.48999023 874.9475708 C93.07523438 874.3688623 92.66047852 873.79015381 92.2331543 873.19390869 C91.32528571 871.92365979 90.42724514 870.64634378 89.5378418 869.36309814 C88.07925041 867.27131591 86.58400943 865.21094717 85.07592773 863.15460205 C81.71877486 858.56999177 78.41241225 853.9502627 75.11499023 849.3225708 C74.5898584 848.58780518 74.06472656 847.85303955 73.52368164 847.0960083 C63.0375523 832.39139583 53.06363852 817.344772 43.08084106 802.29664612 C39.98650256 797.6322522 36.88267034 792.97428187 33.77514648 788.31866455 C30.42425023 783.29552424 27.0814164 778.26807518 23.80249023 773.1975708 C23.35502441 772.5056665 22.90755859 771.81376221 22.4465332 771.10089111 C17.10590901 762.80466899 11.93960105 754.40089363 6.76782227 745.99884033 C5.15122897 743.38124865 3.52383684 740.77073444 1.89233398 738.16241455 C-6.30639837 725.03746409 -14.15511403 711.7282641 -21.88500977 698.3225708 C-22.66424805 696.97678955 -22.66424805 696.97678955 -23.45922852 695.6038208 C-29.90063476 684.47625012 -36.13762501 673.25263209 -42.22973633 661.92999268 C-45.32085062 656.18855139 -48.46639914 650.4862259 -51.69750977 644.8225708 C-55.59893257 637.94908993 -59.15496732 630.93007713 -62.63891602 623.8381958 C-64.0903222 620.90808426 -65.56498048 617.99022916 -67.04125977 615.0725708 C-87.3876997 574.80094821 -105.14029681 533.59514557 -120.88500977 491.3225708 C-121.12987122 490.66744507 -121.37473267 490.01231934 -121.62701416 489.33734131 C-123.07233633 485.46652012 -124.48986993 481.58674232 -125.88500977 477.6975708 C-126.21750732 476.79232666 -126.55000488 475.88708252 -126.89257812 474.95440674 C-127.17883057 474.13488525 -127.46508301 473.31536377 -127.76000977 472.4710083 C-128.00493164 471.78184326 -128.24985352 471.09267822 -128.50219727 470.38262939 C-129.01291146 467.63428349 -128.87263113 465.94836824 -127.88500977 463.3225708 C-125.62963867 461.94805908 -125.62963867 461.94805908 -122.61157227 460.8928833 C-121.49016846 460.49343506 -120.36876465 460.09398682 -119.21337891 459.68243408 C-117.99126709 459.2749292 -116.76915527 458.86742432 -115.51000977 458.4475708 C-114.24091018 458.01161165 -112.97195033 457.57524548 -111.703125 457.13848877 C-33.74213905 430.67074047 51.10369136 430.91620369 125.65991211 467.59844971 C127.85138615 468.68814523 130.0410992 469.7813918 132.22875977 470.87872314 C134.61824685 472.07407305 137.01512686 473.2481906 139.42358398 474.40460205 C152.62772852 480.78432474 165.3369345 488.13960755 178.11499023 495.3225708 C179.16831543 495.91328369 180.22164062 496.50399658 181.30688477 497.11260986 C191.39800302 502.77367732 201.45923538 508.47712885 211.41430664 514.37457275 C217.95107881 518.24297483 224.5321242 522.03326211 231.11499023 525.8225708 C238.36525284 529.99605435 245.60512919 534.1834839 252.80249023 538.4475708 C262.17671161 543.99212195 271.67355743 549.31805286 281.1652832 554.65802002 C284.01915157 556.26848803 286.86690597 557.88919783 289.71264648 559.51397705 C350.65824241 594.27506359 413.93974553 625.56194747 481.11499023 646.3225708 C482.31285156 646.69462646 483.51071289 647.06668213 484.74487305 647.45001221 C499.62169523 651.99445181 514.58307223 655.3791528 529.86499023 658.1975708 C530.65287933 658.34327515 531.44076843 658.48897949 532.25253296 658.63909912 C548.43511313 661.59975334 564.44422728 663.57237365 580.89941406 663.95562744 C583.18071238 664.01014781 585.46113741 664.08063375 587.74194336 664.15264893 C597.59113399 664.42961655 607.29462064 664.1088354 617.11499023 663.3225708 C606.42955476 657.67399712 595.7216149 652.07042224 584.98999023 646.5100708 C583.84522217 645.91637695 582.7004541 645.32268311 581.52099609 644.71099854 C575.89827265 641.79605102 570.27224169 638.88790384 564.63842773 635.9944458 C553.49296955 630.25653172 542.47344876 624.35815685 531.58911133 618.13800049 C524.9370049 614.33712569 518.23103956 610.65056047 511.48999023 607.0100708 C504.6220996 603.29091209 497.89736465 599.46066532 491.28686523 595.2991333 C487.58007008 592.98923386 483.82241401 590.77733574 480.05249023 588.5725708 C452.47202878 572.3915363 425.62921704 555.18839823 399.11499023 537.3225708 C398.17768066 536.69125244 397.24037109 536.05993408 396.2746582 535.40948486 C387.81983579 529.70267347 379.43662072 523.94709967 371.32592773 517.75616455 C367.99353909 515.21405285 364.60929244 512.7442884 361.22705078 510.269104 C349.18982241 501.45298927 337.43061884 492.43256971 326.15283203 482.659729 C322.69390156 479.66263746 319.18801661 476.74663073 315.61499023 473.8850708 C311.32735212 470.41352779 307.30772934 466.73446262 303.30249023 462.9475708 C297.09489817 457.10333342 290.63922327 451.73138229 283.82543945 446.60919189 C282.71570724 445.77443758 281.61026818 444.93393328 280.51000977 444.08673096 C209.40245808 389.430911 106.04368262 370.43224301 -144.06469727 341.02764893 C-145.23047302 340.9622995 -145.23047302 340.9622995 -146.4197998 340.89562988 C-148.41777104 340.78590954 -150.41602739 340.6814133 -152.41430664 340.57745361 C-155.93949618 340.31856941 -159.38929033 339.83799283 -162.88500977 339.3225708 C-163.88613166 314.38678924 -164.25153669 289.44725828 -164.59219098 264.49521732 C-164.65575217 259.86056374 -164.72101822 255.22593466 -164.78619713 250.59130359 C-164.94095539 239.58005079 -165.09253516 228.56875736 -165.2421875 217.55743408 C-165.37694637 207.64624323 -165.51565509 197.73511749 -165.65820312 187.82403564 C-166.47963979 130.65434623 -167.15427818 73.49879703 -166.88500977 16.3225708 C-164.97291408 15.83849659 -163.06040351 15.35606103 -161.14772034 14.87431335 C-160.08273599 14.60548057 -159.01775164 14.33664778 -157.92049503 14.05966854 C-154.23939811 13.16579887 -150.58705765 12.47896729 -146.84985352 11.85772705 C-146.1415036 11.73959656 -145.43315369 11.62146606 -144.70333862 11.49975586 C-142.4108431 11.12092722 -140.1170024 10.75159965 -137.82250977 10.3850708 C-137.01889008 10.25595306 -136.21527039 10.12683533 -135.38729858 9.99380493 C-90.49743872 2.82379343 -45.44088345 -0.22645296 0 0 Z " fill="#000273" transform="translate(452.885009765625,1099.6774291992188)"/>
<path d="M0 0 C-0.6012578 10.03761763 -1.65602998 19.96312587 -2.95849609 29.9309082 C-3.15811097 31.48188569 -3.357354 33.03291107 -3.55626011 34.58397961 C-3.98367632 37.91156375 -4.41344343 41.23883232 -4.84507561 44.56587219 C-5.53767904 49.90570209 -6.22426057 55.24629602 -6.9098053 60.58703613 C-7.76300142 67.23170086 -8.61711539 73.87624585 -9.47264391 80.52061069 C-18.19684602 148.28411469 -26.89705927 216.04342829 -34 284 C-34.08438828 284.80630608 -34.16877655 285.61261215 -34.25572205 286.44335175 C-36.67773261 309.61295289 -38.93264551 332.79606663 -41 356 C-41.06595871 356.74027184 -41.13191742 357.48054367 -41.19987488 358.24324799 C-45.04216112 401.45393776 -48.34085395 444.6899871 -50.67094135 488.00952721 C-50.91677989 492.55167933 -51.18261578 497.09233471 -51.45751953 501.6328125 C-54.03777725 544.68369386 -54.2913019 587.7343209 -54.31007385 630.84846115 C-54.31140282 633.83938231 -54.31397953 636.83029765 -54.31785583 639.82121658 C-54.36609619 677.25388857 -53.97170259 714.60817321 -52 752 C-51.94019266 753.14368671 -51.94019266 753.14368671 -51.87917709 754.31047821 C-51.4011035 763.37976744 -50.82892883 772.44082178 -50.1875 781.5 C-50.10385193 782.70642151 -50.02020386 783.91284302 -49.934021 785.15582275 C-43.10729339 883.0605839 -28.8949565 981.53635046 3.31695557 1081.90655518 C3.96690527 1083.89856885 4.61167651 1085.89218839 5.25537109 1087.88623047 C15.29797648 1118.77802396 27.8763612 1148.76568889 42 1178 C42.43086914 1178.90411621 42.86173828 1179.80823242 43.30566406 1180.73974609 C60.91347262 1217.63528477 83.71530376 1252.9176593 109 1285 C109.71414063 1285.91652344 110.42828125 1286.83304688 111.1640625 1287.77734375 C125.49810357 1305.97508724 141.06076185 1324.18251601 159.25097656 1338.60595703 C160.50541205 1339.60579325 161.75411714 1340.6128353 162.99902344 1341.62451172 C172.56188102 1349.39514815 182.08227217 1356.35408466 193.05419922 1361.99414062 C194.99066423 1362.99517398 196.90337073 1364.03313608 198.81640625 1365.078125 C213.82505954 1373.11432924 230.1755982 1378.42987987 247 1381 C248.19753906 1381.18304687 249.39507813 1381.36609375 250.62890625 1381.5546875 C312.24420288 1388.93350036 369.75508956 1357.31959653 423.04998779 1330.98712158 C473.88053007 1305.87958463 531.15760397 1280.41992812 588.37890625 1299.02661133 C617.05151884 1308.76767085 641.03531267 1325.83998119 655.3125 1352.9375 C669.48399641 1383.04691164 668.64399684 1416.5713027 657.86669922 1447.60644531 C642.23167798 1490.78552933 608.11170273 1525.15283499 569 1548 C568.25443848 1548.44053711 567.50887695 1548.88107422 566.74072266 1549.33496094 C532.74311677 1569.27361929 494.84917691 1580.42373648 456.0625 1586.3125 C455.09594482 1586.45977539 454.12938965 1586.60705078 453.13354492 1586.75878906 C433.15489358 1589.56062308 413.15143823 1590.37916191 393 1590.3125 C391.84668182 1590.31067719 390.69336365 1590.30885437 389.50509644 1590.30697632 C370.8278714 1590.25749788 352.51640015 1589.57531315 334 1587 C332.16284424 1586.75056641 332.16284424 1586.75056641 330.28857422 1586.49609375 C279.38652352 1579.35936588 230.59902366 1562.28027048 184 1541 C181.78392974 1539.99983254 179.56778193 1538.99983689 177.3515625 1538 C165.16212295 1532.46914005 153.2083307 1526.65023357 141.4296875 1520.29492188 C138.82042617 1518.90429466 136.19435897 1517.55047415 133.5625 1516.203125 C119.40934343 1508.94814558 105.66260326 1501.13683928 92 1493 C90.80779556 1492.29331878 89.61540743 1491.58694738 88.42285156 1490.88085938 C51.84753545 1469.21589295 16.14135762 1446.0518194 -18.34814453 1421.18847656 C-20.57174773 1419.58863909 -22.80295616 1417.99958453 -25.03417969 1416.41040039 C-27.3889148 1414.73213229 -29.74026777 1413.04916075 -32.09130859 1411.36572266 C-33.40340655 1410.42687948 -34.71627546 1409.48911312 -36.02978516 1408.55224609 C-46.82797531 1400.8456643 -57.43392562 1392.91521307 -67.96484375 1384.84765625 C-72.3483859 1381.49066599 -76.760978 1378.17498357 -81.1875 1374.875 C-92.69751509 1366.27439981 -104.0808335 1357.49400731 -115.16015625 1348.34375 C-118.77947424 1345.35669251 -122.42010376 1342.39634226 -126.0625 1339.4375 C-126.75819092 1338.87208496 -127.45388184 1338.30666992 -128.1706543 1337.72412109 C-131.74665718 1334.8203439 -135.33201566 1331.9296599 -138.9375 1329.0625 C-150.26977967 1320.01956976 -161.3981125 1310.72154615 -172.43945312 1301.32666016 C-174.5788993 1299.50786314 -176.72279208 1297.69434944 -178.86694336 1295.88110352 C-179.95138588 1294.9639722 -181.03553546 1294.04649439 -182.11938477 1293.12866211 C-184.86064449 1290.80741745 -187.60511101 1288.49014768 -190.35546875 1286.1796875 C-196.18698615 1281.27440235 -201.9176181 1276.29361439 -207.5546875 1271.1640625 C-210.0619851 1268.94514418 -212.63792876 1266.84422621 -215.25 1264.75 C-221.01234335 1260.0910841 -226.38492006 1255.06672284 -231.78515625 1250 C-234.77774333 1247.19482746 -237.8396056 1244.48385954 -240.9453125 1241.8046875 C-244.20806406 1238.93892473 -247.38899641 1235.98379294 -250.58300781 1233.04199219 C-253.31489213 1230.53044889 -256.06516973 1228.04893083 -258.875 1225.625 C-263.26350692 1221.82407559 -267.4917408 1217.8521582 -271.72607422 1213.88134766 C-274.75135772 1211.05285863 -277.80992413 1208.27774897 -280.9375 1205.5625 C-285.05769128 1201.97714124 -289.03690281 1198.25739848 -293 1194.5 C-294.49198066 1193.08962491 -295.98417339 1191.67947414 -297.4765625 1190.26953125 C-298.22711914 1189.56006348 -298.97767578 1188.8505957 -299.75097656 1188.11962891 C-301.91868688 1186.07663488 -304.09410287 1184.04230194 -306.2734375 1182.01171875 C-313.10214145 1175.64685129 -319.85967937 1169.24927644 -326.375 1162.5625 C-328.44257319 1160.54415474 -330.52983146 1158.66088851 -332.71875 1156.78125 C-338.42478448 1151.83530642 -343.64009919 1146.40580612 -348.93359375 1141.02734375 C-349.72894531 1140.22425781 -350.52429687 1139.42117188 -351.34375 1138.59375 C-352.04693359 1137.87896484 -352.75011719 1137.16417969 -353.47460938 1136.42773438 C-355.49642715 1134.48409981 -357.5450944 1132.65246585 -359.66967773 1130.82592773 C-364.64747203 1126.50081411 -369.2856286 1121.85792609 -373.94140625 1117.19140625 C-374.86791489 1116.26585434 -375.79442352 1115.34030243 -376.74900818 1114.38670349 C-378.69782361 1112.43935145 -380.64484737 1110.49023087 -382.59057617 1108.53979492 C-385.06363861 1106.06103605 -387.54116533 1103.58679569 -390.02006626 1101.1138773 C-392.41296201 1098.72549855 -394.80200318 1096.3332792 -397.19140625 1093.94140625 C-398.07075333 1093.0640834 -398.9501004 1092.18676056 -399.85609436 1091.28285217 C-404.21285018 1086.90964039 -408.40890342 1082.46966607 -412.43321228 1077.78916931 C-414.74126316 1075.15352585 -417.19416778 1072.71203516 -419.6875 1070.25 C-420.19369873 1069.74758789 -420.69989746 1069.24517578 -421.22143555 1068.72753906 C-422.8118185 1067.14917288 -424.40544445 1065.57414991 -426 1064 C-438.09472284 1052.06005424 -438.09472284 1052.06005424 -443.51513672 1045.70751953 C-445.74109211 1043.14778063 -448.13560203 1040.80787632 -450.5625 1038.4375 C-451.50701949 1037.48097116 -452.45103314 1036.52394257 -453.39453125 1035.56640625 C-455.83958636 1033.07014753 -455.83958636 1033.07014753 -458.07421875 1031.33984375 C-460.07524679 1029.59069336 -460.93579006 1028.45805157 -462 1026 C-462.06518617 1023.36298972 -462.0030501 1020.92388046 -461.79296875 1018.30859375 C-461.73954819 1017.55556473 -461.68612762 1016.80253571 -461.63108826 1016.02668762 C-461.01129853 1008.01686863 -459.85984543 1000.11160149 -458.5625 992.1875 C-458.43506409 991.39676086 -458.30762817 990.60602173 -458.17633057 989.7913208 C-446.48095526 917.47796201 -429.02119358 846.43326335 -407.72338867 776.38049316 C-407.04196409 774.13809343 -406.36337617 771.89485583 -405.68554688 769.65136719 C-381.44315168 689.56497845 -351.0651299 610.79156512 -314.27294922 529.79492188 C-313.04906325 527.10772461 -311.83418924 524.41657248 -310.62181091 521.72416687 C-306.4523702 512.46539741 -302.24195243 503.22576983 -298 494 C-297.68518677 493.31496399 -297.37037354 492.62992798 -297.04602051 491.9241333 C-286.41029337 468.81484203 -275.118731 446.03000205 -263.75818253 423.27093887 C-262.64069977 421.03146292 -261.52449825 418.79135231 -260.40853882 416.55111694 C-252.30571366 400.29318542 -244.06290363 384.15705581 -235.25036621 368.26873779 C-233.39236473 364.89747093 -231.58420777 361.50065639 -229.78515625 358.09765625 C-229.16890381 356.93339111 -228.55265137 355.76912598 -227.91772461 354.56958008 C-227.30550049 353.41224365 -226.69327637 352.25490723 -226.0625 351.0625 C-220.29547932 340.19579654 -214.3637186 329.43913592 -208.265625 318.75390625 C-205.31821493 313.58340407 -202.44029444 308.37644131 -199.5690918 303.16333008 C-192.64291018 290.59878548 -185.46354264 278.21049454 -178.10546875 265.89453125 C-175.28877383 261.17844033 -172.50058449 256.44734587 -169.73828125 251.69921875 C-161.95444215 238.32451549 -154.02086905 225.07368762 -145.76171875 211.984375 C-141.70046418 205.54540937 -137.72606473 199.05428325 -133.75 192.5625 C-128.57414616 184.12809468 -123.32309633 175.75653685 -117.91015625 167.47265625 C-114.92229804 162.8969345 -111.98562506 158.28900301 -109.046875 153.68164062 C-102.93999713 144.10854411 -96.79057604 134.57493831 -90.44628906 125.15771484 C-88.66020083 122.49305451 -86.88875838 119.81886478 -85.1171875 117.14453125 C-84.06917969 115.56490601 -84.06917969 115.56490601 -83 113.95336914 C-81.62595191 111.88203585 -80.25344935 109.80967613 -78.8828125 107.73608398 C-75.00391419 101.8988269 -71.005016 96.17900292 -66.83935547 90.54248047 C-64.90230381 87.86495778 -63.06745048 85.13484152 -61.25 82.375 C-56.51136011 75.20225407 -51.53226648 68.20562081 -46.55566406 61.19677734 C-45.04898023 59.06916575 -43.5503143 56.93617617 -42.0546875 54.80078125 C-34.53644018 44.07550211 -26.81656696 33.509482 -19 23 C-18.3287207 22.09588379 -17.65744141 21.19176758 -16.96582031 20.26025391 C-14.91799273 17.5043753 -12.86605194 14.751615 -10.8125 12 C-10.17658936 11.14494873 -9.54067871 10.28989746 -8.88549805 9.40893555 C-8.290354 8.61398682 -7.69520996 7.81903809 -7.08203125 7 C-6.55843018 6.29875 -6.0348291 5.5975 -5.49536133 4.875 C-1.60742188 0 -1.60742188 0 0 0 Z " fill="#017F06" transform="translate(1513,173)"/>
<path d="M0 0 C-1.37213013 3.0818665 -2.93378899 5.17492795 -5.32885742 7.54003906 C-6.00683884 8.21464172 -6.68482025 8.88924438 -7.38334656 9.58428955 C-8.11664688 10.30413025 -8.8499472 11.02397095 -9.60546875 11.765625 C-10.36289871 12.51785339 -11.12032867 13.27008179 -11.90071106 14.04510498 C-14.32494306 16.45153225 -16.75572983 18.85119238 -19.1875 21.25 C-21.60059092 23.63533204 -24.01216121 26.02215052 -26.42073059 28.41204834 C-27.91830564 29.89752375 -29.41854445 31.38032038 -30.92192078 32.85992432 C-34.96776728 36.86768307 -38.82008932 40.97440483 -42.52449036 45.30059814 C-44.41416168 47.47700612 -46.43189027 49.49362489 -48.5 51.5 C-51.84933729 54.80986698 -54.99925956 58.20746949 -58.0625 61.78125 C-59.98587609 63.98382585 -61.96074688 66.1327927 -63.94970703 68.27612305 C-68.739328 73.43903582 -73.27063749 78.72922088 -77.6875 84.21875 C-80.19973901 87.24022664 -82.82440062 90.12401923 -85.5 93 C-89.67753049 97.50059093 -93.64713032 102.12065727 -97.5 106.90234375 C-99.980551 109.97590147 -102.4905011 113.02302343 -105.00756836 116.06665039 C-115.05963898 128.22621587 -124.94651431 140.50253918 -134.51123047 153.05029297 C-136.24395535 155.31948629 -137.98345983 157.5834194 -139.72265625 159.84765625 C-148.34620009 171.09457729 -156.78752123 182.44963131 -165 194 C-165.48355957 194.6791748 -165.96711914 195.35834961 -166.46533203 196.05810547 C-169.9971373 201.02459473 -173.50157716 206.00996206 -177 211 C-177.62841797 211.89412598 -178.25683594 212.78825195 -178.90429688 213.70947266 C-187.03443775 225.28488862 -195.0183898 236.91764091 -202.61962891 248.84716797 C-204.10153428 251.15835325 -205.60128081 253.45716432 -207.10546875 255.75390625 C-225.74690569 284.21977051 -243.11958626 313.46159088 -260 343 C-260.83096191 344.44922852 -260.83096191 344.44922852 -261.67871094 345.92773438 C-288.48555808 392.71494026 -313.50852303 440.92854609 -335.41470337 490.20809937 C-337.3793185 494.62545981 -339.37810799 499.02583745 -341.3984375 503.41796875 C-369.72657069 565.11240387 -393.71897382 628.75481885 -415.34130859 693.07519531 C-416.77331326 697.33323678 -418.22186182 701.58533173 -419.67578125 705.8359375 C-442.65237841 773.33171546 -461.8059098 842.8554692 -475.28662109 912.87768555 C-475.45759811 913.75384521 -475.62857513 914.63000488 -475.80473328 915.53271484 C-476.12117626 917.15970077 -476.43101366 918.78799095 -476.73298645 920.41772461 C-477.77654105 925.77654105 -477.77654105 925.77654105 -480 928 C-480.80179688 927.36835937 -481.60359375 926.73671875 -482.4296875 926.0859375 C-485.5677666 923.61547487 -488.70972498 921.14998197 -491.85253906 918.68554688 C-493.28256883 917.56311332 -494.71160865 916.43941738 -496.13964844 915.31445312 C-513.00594673 902.03138735 -530.34340489 889.68101178 -548.1875 877.75 C-548.95423035 877.2361676 -549.72096069 876.72233521 -550.51092529 876.19293213 C-560.5102199 869.5002762 -570.61877578 863.08341115 -581 857 C-581.89162842 856.47325684 -582.78325684 855.94651367 -583.7019043 855.40380859 C-598.50334208 846.70096545 -613.69216957 838.7684235 -629 831 C-630.1432373 830.41959961 -631.28647461 829.83919922 -632.46435547 829.24121094 C-703.95796511 793.20217091 -783.07290272 770.0575599 -920 754 C-920.73556122 753.95869965 -921.47112244 753.91739929 -922.22897339 753.87484741 C-935.67814477 753.12754997 -949.09324122 752.7979895 -962.5625 752.8125 C-963.52712158 752.81277191 -964.49174316 752.81304382 -965.4855957 752.81332397 C-1001.698514 752.85972224 -1037.53668428 755.64518415 -1073.3034668 761.37426758 C-1074.31898872 761.53543564 -1074.31898872 761.53543564 -1075.35502625 761.69985962 C-1077.19169512 761.99247246 -1079.02752105 762.2903625 -1080.86328125 762.58862305 C-1083.62657699 762.95102601 -1086.21899743 763.08250395 -1089 763 C-1083.64414148 703.30565412 -1067.26035729 638.85321222 -1033 589 C-1032.63970703 588.47132324 -1032.27941406 587.94264648 -1031.90820312 587.39794922 C-1025.79907613 578.47567598 -1019.19727288 570.0710632 -1012 562 C-1011.44675049 561.3080957 -1010.89350098 560.61619141 -1010.32348633 559.90332031 C-1007.20064669 557.34519718 -1004.26597475 557.13374136 -1000.37890625 556.8046875 C-999.24081261 556.68793167 -999.24081261 556.68793167 -998.07972717 556.56881714 C-995.57543242 556.31823103 -993.06962354 556.09535577 -990.5625 555.875 C-988.79667087 555.70909858 -987.03088363 555.54275075 -985.26513672 555.37597656 C-904.05473897 547.88505545 -822.12753462 551.95341159 -659 603 C-657.99582031 603.45197754 -656.99164062 603.90395508 -655.95703125 604.36962891 C-627.16713021 617.39068884 -599.5727104 634.09494731 -575 654 C-574.06542969 654.74765625 -573.13085938 655.4953125 -572.16796875 656.265625 C-571.45253906 656.83796875 -570.73710938 657.4103125 -570 658 C-574.82399856 649.21159836 -579.95259815 641.01657363 -586 633 C-586.88007734 631.79216276 -587.75753304 630.58241236 -588.6328125 629.37109375 C-596.14375158 618.98797579 -604.01043765 609.04796955 -612.6640625 599.58203125 C-613.95314976 598.15713713 -615.23567055 596.72586288 -616.48828125 595.26879883 C-621.34099888 589.62638342 -626.48615768 584.32136563 -631.75 579.0625 C-632.63888916 578.1744165 -633.52777832 577.28633301 -634.44360352 576.37133789 C-639.58390901 571.27898038 -644.72591472 566.4287297 -650.4453125 561.9921875 C-652.92326365 560.05984027 -655.29320539 558.04312512 -657.66625977 555.98535156 C-664.79021246 549.82809273 -672.23389624 544.3158851 -680 539 C-680.75249023 538.48066895 -681.50498047 537.96133789 -682.28027344 537.42626953 C-696.11768179 527.90575454 -710.34690608 519.206231 -725 511 C-725.85464844 510.51966309 -726.70929688 510.03932617 -727.58984375 509.54443359 C-791.9267563 473.72971075 -867.34912945 453.30028331 -940.47875977 447.59472656 C-941.31463623 447.52866211 -942.1505127 447.46259766 -943.01171875 447.39453125 C-943.73834717 447.34143799 -944.46497559 447.28834473 -945.21362305 447.23364258 C-947 447 -947 447 -949 446 C-947.30687462 442.10010446 -944.7520227 438.92654712 -942.125 435.625 C-941.6395874 435.01140625 -941.1541748 434.3978125 -940.65405273 433.765625 C-935.7656884 427.63071602 -930.66679446 421.68570392 -925.52490234 415.76318359 C-923.98334475 413.9807422 -922.4529043 412.18934941 -920.92578125 410.39453125 C-915.46235113 403.97609006 -909.92386037 397.65417393 -904.2265625 391.44140625 C-902.30866793 389.33845167 -900.42623955 387.21330844 -898.5625 385.0625 C-893.81561718 379.61074363 -888.91059623 374.30385945 -884 369 C-883.42685059 368.3802832 -882.85370117 367.76056641 -882.26318359 367.12207031 C-874.93715659 359.21429958 -867.53899052 351.40561512 -859.83081055 343.86767578 C-856.98812838 341.07019756 -854.28526953 338.21546377 -851.68359375 335.19140625 C-847.52899119 330.38595812 -843.06326819 325.91681893 -838.5625 321.4375 C-837.75490234 320.62603516 -836.94730469 319.81457031 -836.11523438 318.97851562 C-831.79261196 314.66285956 -827.38821957 310.52188617 -822.75756836 306.53930664 C-820.39127697 304.46687058 -818.19372075 302.2530105 -816 300 C-812.51534471 296.42116484 -808.87625525 293.12004911 -805.10546875 289.8515625 C-801.65729015 286.81921249 -798.33326792 283.65749012 -795 280.5 C-789.76737701 275.54331611 -784.45496396 270.71116903 -779 266 C-778.44973145 265.52224121 -777.89946289 265.04448242 -777.33251953 264.55224609 C-768.40947405 256.81599602 -759.32589026 249.28373048 -750.19091797 241.79980469 C-747.98786696 239.9900329 -745.79178915 238.17213271 -743.59765625 236.3515625 C-736.3072116 230.30745925 -728.97795082 224.35574263 -721.4375 218.625 C-718.83604182 216.64764461 -716.25831628 214.64203273 -713.6875 212.625 C-705.20088744 205.96844325 -696.65494968 199.46139944 -687.81884766 193.27587891 C-685.84694202 191.89263342 -683.88202566 190.4998343 -681.91796875 189.10546875 C-617.71578492 143.56209058 -549.48063744 102.97441474 -477 72 C-475.42818939 71.31816005 -473.85655962 70.63590298 -472.28515625 69.953125 C-467.54689764 67.91042996 -462.77934945 65.94438085 -458 64 C-456.88608887 63.5457666 -455.77217773 63.0915332 -454.62451172 62.62353516 C-419.72848471 48.43973084 -384.25411628 36.22069411 -348 26 C-347.02404877 25.72313354 -347.02404877 25.72313354 -346.02838135 25.44067383 C-289.56972156 9.42695803 -231.63500223 -0.73449909 -173.19274902 -5.80859375 C-171.14790469 -5.98708932 -169.10370659 -6.17294572 -167.05957031 -6.359375 C-116.36610657 -10.80779595 -48.95561752 -16.31853917 0 0 Z " fill="#00A2C3" transform="translate(1433,202)"/>
</svg>
